#!OML:ASF E:\Mandelcareful walks\Project 1\Capture day 1\Session 1\Subject1.ASF
:FULLY-SPECIFIED
:DEGREES
427
root -19.1318 9.2658 1.87075 515.78 66.995 482.085
lowerback 52.0977 -2.6733 -8.57293
upperback 7.95293 -6.31519 -6.38667
thorax -11.8602 -1.37824 -0.461041
lowerneck -32.798 5.39063 -1.17559
upperneck 23.6729 9.4088 -3.85141
head 13.5529 3.34987 0.582258
rclavicle 2.0276e-014 4.60683e-014
rhumerus 5.0169 -2.64823 -74.7783
rradius 56.6386
rwrist -25.884
rhand -33.3184 -44.8341
rfingers 7.12502
rthumb -6.52158 -74.7137
lclavicle 2.0276e-014 4.60683e-014
lhumerus 58.2448 -20.4311 46.6661
lradius 29.8737
lwrist 14.7077
lhand -27.0726 348.318
lfingers 7.12502
lthumb -0.490168 18.2969
rfemur -22.6415 -56.5465 -23.3593
rtibia 123.676
rfoot -17.8388 2.68538
rtoes 27.3981
lfemur -94.0004 40.1886 -22.0468
ltibia 120.934
lfoot -12.3183 -24.5166
ltoes -31.989
428
root -19.2096 9.21643 1.76942 519.109 66.4143 484.89
lowerback 50.883 -3.05933 -7.84623
upperback 8.21849 -6.23428 -6.04152
thorax -11.4286 -1.42715 -0.408747
lowerneck -32.8567 4.89173 -2.17178
upperneck 23.4622 8.99574 -3.28697
head 13.3846 3.1759 0.871306
rclavicle -1.51076e-014 -4.90998e-014
rhumerus 4.20843 -1.45288 -73.3456
rradius 57.6793
rwrist -26.1747
rhand -34.2551 -45.8726
rfingers 7.12502
rthumb -7.42576 -75.7223
lclavicle -1.51076e-014 -4.90998e-014
lhumerus 59.2105 -21.1758 47.0803
lradius 29.9201
lwrist 14.2511
lhand -27.2261 349.227
lfingers 7.12502
lthumb -0.638477 19.206
rfemur -21.4513 -58.7175 -25.3527
rtibia 124.309
rfoot -17.8448 3.86859
rtoes 30.5395
lfemur -96.3788 39.2012 -23.1654
ltibia 121.631
lfoot -12.8539 -24.5083
ltoes -31.5728
429
root -19.3037 9.15516 1.63781 522.367 65.1327 487.194
lowerback 49.2017 -3.99561 -6.61497
upperback 8.54164 -6.59869 -6.0386
thorax -10.9522 -1.67117 -0.766451
lowerneck -33.3483 4.38069 -3.0131
upperneck 23.65 8.48771 -2.53978
head 13.464 2.97539 1.20583
rclavicle 8.54774e-014 4.3832e-014
rhumerus 3.45548 0.215193 -72.0628
rradius 58.8577
rwrist -26.9177
rhand -35.1204 -47.7258
rfingers 7.12502
rthumb -8.261 -77.5442
lclavicle 8.54774e-014 4.3832e-014
lhumerus 60.2695 -22.149 47.4851
lradius 29.8272
lwrist 13.626
lhand -27.5416 349.532
lfingers 7.12502
lthumb -0.943165 19.5092
rfemur -18.8749 -61.8958 -29.8302
rtibia 125.184
rfoot -17.6124 5.01065
rtoes 15.6843
lfemur -99.505 36.9486 -25.0632
ltibia 122.562
lfoot -13.829 -23.6668
ltoes -31.815
430
root -19.3689 9.11856 1.54157 523.547 64.955 489.119
lowerback 49.9713 -4.06159 -7.02619
upperback 8.62306 -6.75639 -5.31712
thorax -10.8229 -1.72926 0.253692
lowerneck -34.8629 3.93041 -5.56286
upperneck 24.4115 8.82489 -1.08326
head 13.8427 3.03711 2.29915
rclavicle -9.54166e-015 -6.76862e-014
rhumerus 4.44529 4.51148 -69.1416
rradius 59.712
rwrist -29.5558
rhand -35.3845 -48.2726
rfingers 7.12502
rthumb -8.51586 -78.0809
lclavicle -9.54166e-015 -6.76862e-014
lhumerus 59.2693 -21.4837 48.6157
lradius 30.6536
lwrist 12.8722
lhand -27.6001 349.678
lfingers 7.12502
lthumb -0.999665 19.6555
rfemur -15.6066 -62.1649 -33.0519
rtibia 125.362
rfoot -21.2078 5.43952
rtoes -12.3369
lfemur -99.6654 37.033 -25.174
ltibia 123.294
lfoot -15.183 -23.7762
ltoes -31.9473
431
root -19.4298 9.09453 1.45116 524.633 64.684 491.067
lowerback 50.8561 -4.19517 -7.17675
upperback 8.58865 -6.95705 -5.038
thorax -10.9306 -1.78388 0.696531
lowerneck -35.9026 3.67273 -6.9483
upperneck 25.5012 8.91033 0.27102
head 14.3383 3.07102 3.13944
rclavicle -1.05356e-014 3.47376e-014
rhumerus 4.59152 8.26854 -66.9939
rradius 61.3636
rwrist -32.5159
rhand -34.7088 -48.657
rfingers 7.12502
rthumb -7.86374 -78.4908
lclavicle -1.05356e-014 3.47376e-014
lhumerus 59.088 -21.5772 48.6768
lradius 31.0966
lwrist 12.5099
lhand -27.4819 350.566
lfingers 7.12502
lthumb -0.885549 20.5437
rfemur -12.4918 -61.9172 -35.9501
rtibia 125.321
rfoot -24.6443 6.23392
rtoes -25.77
lfemur -99.5957 37.0579 -25.2389
ltibia 123.997
lfoot -15.5325 -23.7218
ltoes -30.5668
432
root -19.4813 9.08561 1.35837 525.77 64.5091 493.333
lowerback 51.9636 -4.25979 -6.99814
upperback 8.52057 -6.94585 -4.93917
thorax -11.1693 -1.73359 0.700903
lowerneck -35.53 3.52514 -6.50633
upperneck 25.1456 8.55115 -0.150416
head 14.1827 2.92345 2.80403
rclavicle -5.14852e-014 1.20016e-014
rhumerus 2.90113 10.2482 -68.0609
rradius 63.9969
rwrist -32.8694
rhand -33.5401 -48.9894
rfingers 7.12502
rthumb -6.73567 -78.8623
lclavicle -5.14852e-014 1.20016e-014
lhumerus 59.9355 -22.2819 48.3033
lradius 30.9145
lwrist 12.3272
lhand -27.3376 351.846
lfingers 7.12502
lthumb -0.746145 21.8243
rfemur -10.2095 -61.1977 -37.6034
rtibia 125.043
rfoot -24.1396 7.16527
rtoes -24.4093
lfemur -99.0978 37.3262 -24.9359
ltibia 124.613
lfoot -15.2728 -23.8604
ltoes -27.9554
433
root -19.5374 9.05687 1.25747 526.896 64.3851 495.436
lowerback 52.655 -4.34228 -6.94688
upperback 8.52824 -6.994 -4.84262
thorax -11.2399 -1.7264 0.790359
lowerneck -35.3917 3.4034 -6.28156
upperneck 25.0702 8.35208 -0.461741
head 14.1654 2.81879 2.59719
rclavicle 2.36305e-014 4.11609e-014
rhumerus 1.8645 12.6036 -69.433
rradius 66.0046
rwrist -33.1954
rhand -32.5341 -49.0776
rfingers 7.12502
rthumb -5.76441 -78.9792
lclavicle 2.36305e-014 4.11609e-014
lhumerus 60.6003 -22.676 48.1246
lradius 30.5963
lwrist 12.124
lhand -27.1975 352.742
lfingers 7.12502
lthumb -0.610854 22.721
rfemur -7.9191 -60.7165 -39.5786
rtibia 124.939
rfoot -23.5158 7.49497
rtoes -24.076
lfemur -99.1594 37.6069 -24.9184
ltibia 125.414
lfoot -15.3873 -23.7796
ltoes -26.4962
434
root -19.5938 9.0191 1.1597 527.83 64.3831 497.153
lowerback 52.9995 -4.35029 -7.10484
upperback 8.56419 -7.06175 -4.77732
thorax -11.2097 -1.74002 0.952483
lowerneck -35.4533 3.25602 -6.36365
upperneck 25.2193 8.21444 -0.479091
head 14.2456 2.74057 2.58133
rclavicle 1.59028e-015 -5.33985e-014
rhumerus 1.1669 14.8658 -71.3039
rradius 67.5208
rwrist -33.0555
rhand -31.1148 -49.7902
rfingers 7.12502
rthumb -4.39397 -79.7246
lclavicle 1.59028e-015 -5.33985e-014
lhumerus 60.5521 -22.8442 48.9093
lradius 30.3479
lwrist 11.1964
lhand -26.6541 353.75
lfingers 7.12502
lthumb -0.0859672 23.7302
rfemur -6.14615 -60.2462 -41.3346
rtibia 124.987
rfoot -22.8902 8.11373
rtoes -23.0184
lfemur -99.5361 37.9782 -25.0754
ltibia 126.3
lfoot -15.7606 -23.7487
ltoes -25.6505
435
root -19.6455 8.98498 1.0609 528.802 64.369 498.662
lowerback 52.9384 -4.3779 -7.25081
upperback 8.64748 -7.14301 -4.77714
thorax -11.0859 -1.77536 1.05095
lowerneck -35.5445 2.99315 -6.57671
upperneck 25.4221 7.88195 -0.183465
head 14.3364 2.61368 2.67467
rclavicle 6.16232e-015 5.63058e-014
rhumerus 0.215754 16.9844 -73.6235
rradius 68.7357
rwrist -33.2634
rhand -31.3111 -49.0961
rfingers 7.12502
rthumb -4.58357 -79.0266
lclavicle 6.16232e-015 5.63058e-014
lhumerus 60.7647 -23.2039 49.1079
lradius 30.0871
lwrist 11.2852
lhand -26.6337 354.442
lfingers 7.12502
lthumb -0.066323 24.4214
rfemur -4.87914 -59.948 -42.7911
rtibia 125.051
rfoot -22.0181 7.81093
rtoes -22.4939
lfemur -100.034 38.1363 -25.3079
ltibia 127.18
lfoot -16.3905 -23.5948
ltoes -25.3997
436
root -19.7014 8.93725 0.956638 529.989 64.2737 500.094
lowerback 52.3889 -4.46673 -7.37781
upperback 8.79479 -7.26732 -4.7855
thorax -10.8301 -1.85231 1.15826
lowerneck -35.5783 2.73396 -6.61921
upperneck 25.5021 7.48861 -0.00629948
head 14.382 2.46728 2.67555
rclavicle -1.27222e-014 -3.07122e-014
rhumerus 0.253471 19.3031 -74.8845
rradius 69.3265
rwrist -34.7107
rhand -29.9403 -49.3119
rfingers 7.12502
rthumb -3.25979 -79.2667
lclavicle -1.27222e-014 -3.07122e-014
lhumerus 61.217 -23.5821 48.896
lradius 29.6921
lwrist 11.4318
lhand -26.4039 355.287
lfingers 7.12502
lthumb 0.15566 25.2663
rfemur -3.30638 -59.9752 -44.8828
rtibia 125.226
rfoot -20.8801 7.0508
rtoes -21.1359
lfemur -100.81 38.035 -25.6455
ltibia 128.113
lfoot -16.6167 -23.5093
ltoes -24.5917
437
root -19.7618 8.88034 0.853656 531.083 64.2129 501.574
lowerback 52.0229 -4.51614 -7.5444
upperback 8.92041 -7.36461 -4.73818
thorax -10.6072 -1.91305 1.32759
lowerneck -35.6261 2.41896 -6.71023
upperneck 25.4548 7.06306 0.0875699
head 14.3808 2.29586 2.63931
rclavicle 2.78299e-014 1.18177e-013
rhumerus 0.9174 21.3541 -76.0901
rradius 68.9773
rwrist -36.2623
rhand -27.4878 -50.4423
rfingers 7.12502
rthumb -0.891256 -80.4201
lclavicle 2.78299e-014 1.18177e-013
lhumerus 61.5684 -23.953 48.7483
lradius 29.1858
lwrist 11.3864
lhand -26.7718 355.439
lfingers 7.12502
lthumb -0.199691 25.4185
rfemur -1.50475 -59.7773 -47.1761
rtibia 125.432
rfoot -20.1572 7.47997
rtoes -19.2459
lfemur -101.001 38.1867 -25.5435
ltibia 128.957
lfoot -16.0093 -24.4831
ltoes -20.76
438
root -19.8057 8.8481 0.756424 531.83 64.2594 503.125
lowerback 52.2665 -4.46932 -7.72397
upperback 8.96317 -7.38273 -4.68564
thorax -10.5574 -1.91173 1.46471
lowerneck -35.9167 1.96052 -7.23862
upperneck 25.6604 6.53695 0.683335
head 14.4984 2.10173 2.87021
rclavicle -4.69132e-014 6.36111e-015
rhumerus 1.97192 22.7297 -77.41
rradius 67.5123
rwrist -36.859
rhand -26.0114 -49.6228
rfingers 7.12502
rthumb 0.534688 -79.6019
lclavicle -4.69132e-014 6.36111e-015
lhumerus 61.7082 -24.4213 48.6396
lradius 28.8897
lwrist 11.4934
lhand -27.6015 354.792
lfingers 7.12502
lthumb -1.00102 24.7698
rfemur -0.13876 -59.0206 -48.4556
rtibia 125.318
rfoot -19.5592 8.28839
rtoes -17.8046
lfemur -100.799 38.3795 -25.3523
ltibia 129.674
lfoot -16.8081 -24.345
ltoes -21.0274
439
root -19.8461 8.81779 0.657796 532.809 64.2091 504.739
lowerback 52.203 -4.59525 -7.79476
upperback 9.05897 -7.53825 -4.67846
thorax -10.4238 -1.98411 1.56882
lowerneck -36.4645 1.52358 -7.88337
upperneck 26.0584 6.08362 1.45078
head 14.7404 1.94127 3.22113
rclavicle 0 -1.8487e-014
rhumerus 3.48757 23.6697 -78.8541
rradius 64.7719
rwrist -36.6065
rhand -20.9719 -53.8554
rfingers 7.12502
rthumb 5.40149 -83.7666
lclavicle 0 -1.8487e-014
lhumerus 61.4103 -24.7259 48.7939
lradius 28.7033
lwrist 10.788
lhand -27.4973 355.205
lfingers 7.12502
lthumb -0.900423 25.1826
rfemur 0.955802 -58.3854 -49.438
rtibia 125.161
rfoot -18.909 8.87213
rtoes -16.9307
lfemur -100.773 38.266 -25.2208
ltibia 130.339
lfoot -17.2877 -24.0025
ltoes -20.9498
440
root -19.8839 8.7892 0.565677 533.829 64.2162 506.269
lowerback 51.9018 -4.73309 -7.95628
upperback 9.23209 -7.73391 -4.69647
thorax -10.1606 -2.08533 1.70303
lowerneck -36.1166 1.42418 -7.1863
upperneck 24.9214 5.77941 0.520688
head 14.261 1.79526 2.61672
rclavicle -7.95139e-015 3.18055e-015
rhumerus 5.31715 23.6937 -80.3982
rradius 60.9162
rwrist -34.7494
rhand -27.252 -49.8405
rfingers 7.12502
rthumb -0.663484 -79.8192
lclavicle -7.95139e-015 3.18055e-015
lhumerus 62.4676 -25.2888 46.2865
lradius 28.0544
lwrist 12.5137
lhand -27.9749 355.431
lfingers 7.12502
lthumb -1.36165 25.4064
rfemur 1.61266 -57.7662 -50.016
rtibia 125.009
rfoot -18.3872 9.55273
rtoes -15.9943
lfemur -101.209 38.4494 -25.3395
ltibia 131.268
lfoot -17.8838 -23.5436
ltoes -21.765
